# Blender 5.2.1 LTS
# www.blender.org
mtllib bomba_v1.mtl
o Bomba_V1
v 0.000000 0.400000 -1.600000
v 0.000000 0.400000 1.600000
v 0.153073 0.369552 -1.600000
v 0.153073 0.369552 1.600000
v 0.282843 0.282843 -1.600000
v 0.282843 0.282843 1.600000
v 0.369552 0.153073 -1.600000
v 0.369552 0.153073 1.600000
v 0.400000 0.000000 -1.600000
v 0.400000 -0.000000 1.600000
v 0.369552 -0.153073 -1.600000
v 0.369552 -0.153073 1.600000
v 0.282843 -0.282843 -1.600000
v 0.282843 -0.282843 1.600000
v 0.153073 -0.369552 -1.600000
v 0.153073 -0.369552 1.600000
v 0.000000 -0.400000 -1.600000
v 0.000000 -0.400000 1.600000
v -0.153073 -0.369552 -1.600000
v -0.153073 -0.369552 1.600000
v -0.282843 -0.282843 -1.600000
v -0.282843 -0.282843 1.600000
v -0.369552 -0.153073 -1.600000
v -0.369552 -0.153073 1.600000
v -0.400000 0.000000 -1.600000
v -0.400000 -0.000000 1.600000
v -0.369552 0.153073 -1.600000
v -0.369552 0.153073 1.600000
v -0.282843 0.282843 -1.600000
v -0.282843 0.282843 1.600000
v -0.153073 0.369552 -1.600000
v -0.153073 0.369552 1.600000
v 0.000000 -0.400000 -1.600000
v 0.000000 -0.060000 -3.000000
v 0.153073 -0.369552 -1.600000
v 0.022961 -0.055433 -3.000000
v 0.282843 -0.282843 -1.600000
v 0.042426 -0.042426 -3.000000
v 0.369552 -0.153073 -1.600000
v 0.055433 -0.022961 -3.000000
v 0.400000 0.000000 -1.600000
v 0.060000 -0.000000 -3.000000
v 0.369552 0.153073 -1.600000
v 0.055433 0.022961 -3.000000
v 0.282843 0.282843 -1.600000
v 0.042426 0.042426 -3.000000
v 0.153073 0.369552 -1.600000
v 0.022961 0.055433 -3.000000
v 0.000000 0.400000 -1.600000
v 0.000000 0.060000 -3.000000
v -0.153073 0.369552 -1.600000
v -0.022961 0.055433 -3.000000
v -0.282843 0.282843 -1.600000
v -0.042426 0.042426 -3.000000
v -0.369552 0.153073 -1.600000
v -0.055433 0.022961 -3.000000
v -0.400000 0.000000 -1.600000
v -0.060000 -0.000000 -3.000000
v -0.369552 -0.153073 -1.600000
v -0.055433 -0.022961 -3.000000
v -0.282843 -0.282843 -1.600000
v -0.042426 -0.042426 -3.000000
v -0.153073 -0.369552 -1.600000
v -0.022961 -0.055433 -3.000000
v 0.000000 -0.060000 -3.000000
v 0.022961 -0.055433 -3.000000
v 0.042426 -0.042426 -3.000000
v 0.055433 -0.022961 -3.000000
v 0.060000 0.000000 -3.000000
v 0.055433 0.022961 -3.000000
v 0.042426 0.042426 -3.000000
v 0.022961 0.055433 -3.000000
v 0.000000 0.060000 -3.000000
v -0.022961 0.055433 -3.000000
v -0.042426 0.042426 -3.000000
v -0.055433 0.022961 -3.000000
v -0.060000 0.000000 -3.000000
v -0.055433 -0.022961 -3.000000
v -0.042426 -0.042426 -3.000000
v -0.022961 -0.055433 -3.000000
v 0.000000 -0.000000 -3.150000
v 0.000000 0.400000 1.600000
v 0.000000 0.180000 3.400000
v 0.153073 0.369552 1.600000
v 0.068883 0.166298 3.400000
v 0.282843 0.282843 1.600000
v 0.127279 0.127279 3.400000
v 0.369552 0.153073 1.600000
v 0.166298 0.068883 3.400000
v 0.400000 0.000000 1.600000
v 0.180000 -0.000000 3.400000
v 0.369552 -0.153073 1.600000
v 0.166298 -0.068883 3.400000
v 0.282843 -0.282843 1.600000
v 0.127279 -0.127279 3.400000
v 0.153073 -0.369552 1.600000
v 0.068883 -0.166298 3.400000
v 0.000000 -0.400000 1.600000
v 0.000000 -0.180000 3.400000
v -0.153073 -0.369552 1.600000
v -0.068883 -0.166298 3.400000
v -0.282843 -0.282843 1.600000
v -0.127279 -0.127279 3.400000
v -0.369552 -0.153073 1.600000
v -0.166298 -0.068883 3.400000
v -0.400000 0.000000 1.600000
v -0.180000 -0.000000 3.400000
v -0.369552 0.153073 1.600000
v -0.166298 0.068883 3.400000
v -0.282843 0.282843 1.600000
v -0.127279 0.127279 3.400000
v -0.153073 0.369552 1.600000
v -0.068883 0.166298 3.400000
v 0.000000 0.180000 3.400000
v 0.000000 0.180000 3.500000
v 0.068883 0.166298 3.400000
v 0.068883 0.166298 3.500000
v 0.127279 0.127279 3.400000
v 0.127279 0.127279 3.500000
v 0.166298 0.068883 3.400000
v 0.166298 0.068883 3.500000
v 0.180000 0.000000 3.400000
v 0.180000 -0.000000 3.500000
v 0.166298 -0.068883 3.400000
v 0.166298 -0.068883 3.500000
v 0.127279 -0.127279 3.400000
v 0.127279 -0.127279 3.500000
v 0.068883 -0.166298 3.400000
v 0.068883 -0.166298 3.500000
v 0.000000 -0.180000 3.400000
v 0.000000 -0.180000 3.500000
v -0.068883 -0.166298 3.400000
v -0.068883 -0.166298 3.500000
v -0.127279 -0.127279 3.400000
v -0.127279 -0.127279 3.500000
v -0.166298 -0.068883 3.400000
v -0.166298 -0.068883 3.500000
v -0.180000 0.000000 3.400000
v -0.180000 -0.000000 3.500000
v -0.166298 0.068883 3.400000
v -0.166298 0.068883 3.500000
v -0.127279 0.127279 3.400000
v -0.127279 0.127279 3.500000
v -0.068883 0.166298 3.400000
v -0.068883 0.166298 3.500000
v 0.000000 0.940000 0.600000
v 0.000000 0.940000 3.400000
v 0.084190 0.923254 0.600000
v 0.084190 0.923253 3.400000
v 0.155563 0.875564 0.600000
v 0.155563 0.875563 3.400000
v 0.203253 0.804190 0.600000
v 0.203253 0.804190 3.400000
v 0.220000 0.720000 0.600000
v 0.220000 0.720000 3.400000
v 0.203253 0.635810 0.600000
v 0.203253 0.635810 3.400000
v 0.155563 0.564437 0.600000
v 0.155563 0.564436 3.400000
v 0.084190 0.516747 0.600000
v 0.084190 0.516746 3.400000
v 0.000000 0.500000 0.600000
v 0.000000 0.500000 3.400000
v -0.084190 0.516747 0.600000
v -0.084190 0.516746 3.400000
v -0.155563 0.564437 0.600000
v -0.155563 0.564436 3.400000
v -0.203253 0.635810 0.600000
v -0.203253 0.635810 3.400000
v -0.220000 0.720000 0.600000
v -0.220000 0.720000 3.400000
v -0.203253 0.804190 0.600000
v -0.203253 0.804190 3.400000
v -0.155563 0.875564 0.600000
v -0.155563 0.875563 3.400000
v -0.084190 0.923254 0.600000
v -0.084190 0.923253 3.400000
v 0.000000 0.980000 0.200000
v 0.000000 0.940000 0.600000
v 0.099498 0.960209 0.200000
v 0.084190 0.923254 0.600000
v 0.183848 0.903848 0.200000
v 0.155563 0.875564 0.600000
v 0.240209 0.819498 0.200000
v 0.203253 0.804190 0.600000
v 0.260000 0.720000 0.200000
v 0.220000 0.720000 0.600000
v 0.240209 0.620502 0.200000
v 0.203253 0.635810 0.600000
v 0.183848 0.536152 0.200000
v 0.155563 0.564437 0.600000
v 0.099498 0.479791 0.200000
v 0.084190 0.516747 0.600000
v 0.000000 0.460000 0.200000
v 0.000000 0.500000 0.600000
v -0.099498 0.479791 0.200000
v -0.084190 0.516747 0.600000
v -0.183848 0.536152 0.200000
v -0.155563 0.564437 0.600000
v -0.240209 0.620502 0.200000
v -0.203253 0.635810 0.600000
v -0.260000 0.720000 0.200000
v -0.220000 0.720000 0.600000
v -0.240209 0.819498 0.200000
v -0.203253 0.804190 0.600000
v -0.183848 0.903848 0.200000
v -0.155563 0.875564 0.600000
v -0.099498 0.960209 0.200000
v -0.084190 0.923254 0.600000
v 0.000000 0.500000 4.000000
v 0.000000 0.530000 3.400000
v 0.084190 0.516747 4.000000
v 0.072710 0.544463 3.400000
v 0.155563 0.564437 4.000000
v 0.134350 0.585650 3.400000
v 0.203253 0.635810 4.000000
v 0.175537 0.647290 3.400000
v 0.220000 0.720000 4.000000
v 0.190000 0.720000 3.400000
v 0.203253 0.804190 4.000000
v 0.175537 0.792710 3.400000
v 0.155563 0.875564 4.000000
v 0.134350 0.854350 3.400000
v 0.084190 0.923254 4.000000
v 0.072710 0.895537 3.400000
v 0.000000 0.940000 4.000000
v 0.000000 0.910000 3.400000
v -0.084190 0.923254 4.000000
v -0.072710 0.895537 3.400000
v -0.155563 0.875564 4.000000
v -0.134350 0.854350 3.400000
v -0.203253 0.804190 4.000000
v -0.175537 0.792710 3.400000
v -0.220000 0.720000 4.000000
v -0.190000 0.720000 3.400000
v -0.203253 0.635810 4.000000
v -0.175537 0.647290 3.400000
v -0.155563 0.564437 4.000000
v -0.134350 0.585650 3.400000
v -0.084190 0.516747 4.000000
v -0.072710 0.544463 3.400000
v -0.040000 0.310000 2.100000
v -0.040000 0.590000 2.100000
v -0.040000 0.310000 1.500000
v -0.040000 0.590000 1.500000
v 0.040000 0.310000 2.100000
v 0.040000 0.590000 2.100000
v 0.040000 0.310000 1.500000
v 0.040000 0.590000 1.500000
v -2.400000 -0.040000 0.000000
v -2.400000 0.040000 0.000000
v -2.400000 -0.040000 -1.000000
v -2.400000 0.040000 -1.000000
v 2.400000 -0.040000 0.000000
v 2.400000 0.040000 0.000000
v 2.400000 -0.040000 -1.000000
v 2.400000 0.040000 -1.000000
v -0.030000 0.105000 3.350000
v -0.030000 0.655000 3.350000
v -0.030000 0.105000 2.650000
v -0.030000 0.655000 2.650000
v 0.030000 0.105000 3.350000
v 0.030000 0.655000 3.350000
v 0.030000 0.105000 2.650000
v 0.030000 0.655000 2.650000
v -0.900000 0.020000 3.200000
v -0.900000 0.080000 3.200000
v -0.900000 0.020000 2.600000
v -0.900000 0.080000 2.600000
v 0.900000 0.020000 3.200000
v 0.900000 0.080000 3.200000
v 0.900000 0.020000 2.600000
v 0.900000 0.080000 2.600000
vn -0.0000 0.7462 -0.6657
vn -0.0000 0.7462 0.6657
vn 0.2856 0.6894 -0.6657
vn 0.2856 0.6894 0.6657
vn 0.5276 0.5276 -0.6657
vn 0.5276 0.5276 0.6657
vn 0.6894 0.2856 -0.6657
vn 0.6894 0.2856 0.6657
vn 0.7462 -0.0000 -0.6657
vn 0.7462 -0.0000 0.6657
vn 0.6894 -0.2856 -0.6657
vn 0.6894 -0.2856 0.6657
vn 0.5276 -0.5276 -0.6657
vn 0.5276 -0.5276 0.6657
vn 0.2856 -0.6894 -0.6657
vn 0.2856 -0.6894 0.6657
vn -0.0000 -0.7462 -0.6657
vn -0.0000 -0.7462 0.6657
vn -0.2856 -0.6894 -0.6657
vn -0.2856 -0.6894 0.6657
vn -0.5276 -0.5276 -0.6657
vn -0.5276 -0.5276 0.6657
vn -0.6894 -0.2856 -0.6657
vn -0.6894 -0.2856 0.6657
vn -0.7462 -0.0000 -0.6657
vn -0.7462 -0.0000 0.6657
vn -0.6894 0.2856 -0.6657
vn -0.6894 0.2856 0.6657
vn -0.5276 0.5276 -0.6657
vn -0.5276 0.5276 0.6657
vn -0.2856 0.6894 -0.6657
vn -0.2856 0.6894 0.6657
vn -0.0000 -0.8185 0.5745
vn -0.0000 -0.6614 -0.7500
vn 0.3132 -0.7562 0.5745
vn 0.2531 -0.6111 -0.7500
vn 0.5788 -0.5788 0.5745
vn 0.4677 -0.4677 -0.7500
vn 0.7562 -0.3132 0.5745
vn 0.6111 -0.2531 -0.7500
vn 0.8185 -0.0000 0.5745
vn 0.6614 -0.0000 -0.7500
vn 0.7562 0.3132 0.5745
vn 0.6111 0.2531 -0.7500
vn 0.5788 0.5788 0.5745
vn 0.4677 0.4677 -0.7500
vn 0.3132 0.7562 0.5745
vn 0.2531 0.6111 -0.7500
vn -0.0000 0.8185 0.5745
vn -0.0000 0.6614 -0.7500
vn -0.3132 0.7562 0.5745
vn -0.2531 0.6111 -0.7500
vn -0.5788 0.5788 0.5745
vn -0.4677 0.4677 -0.7500
vn -0.7562 0.3132 0.5745
vn -0.6111 0.2531 -0.7500
vn -0.8185 -0.0000 0.5745
vn -0.6614 -0.0000 -0.7500
vn -0.7562 -0.3132 0.5745
vn -0.6111 -0.2531 -0.7500
vn -0.5788 -0.5788 0.5745
vn -0.4677 -0.4677 -0.7500
vn -0.3132 -0.7562 0.5745
vn -0.2531 -0.6111 -0.7500
vn -0.0000 -0.8557 0.5175
vn 0.3275 -0.7906 0.5175
vn 0.6051 -0.6051 0.5175
vn 0.7906 -0.3275 0.5175
vn 0.8557 -0.0000 0.5175
vn 0.7906 0.3275 0.5175
vn 0.6051 0.6051 0.5175
vn 0.3275 0.7906 0.5175
vn -0.0000 0.8557 0.5175
vn -0.3275 0.7906 0.5175
vn -0.6051 0.6051 0.5175
vn -0.7906 0.3275 0.5175
vn -0.8557 -0.0000 0.5175
vn -0.7906 -0.3275 0.5175
vn -0.6051 -0.6051 0.5175
vn -0.3275 -0.7906 0.5175
vn -0.0000 -0.0000 -1.0000
vn -0.0000 0.7847 -0.6199
vn -0.0000 0.7045 0.7097
vn 0.3003 0.7249 -0.6199
vn 0.2696 0.6509 0.7097
vn 0.5548 0.5548 -0.6199
vn 0.4981 0.4981 0.7097
vn 0.7249 0.3003 -0.6199
vn 0.6509 0.2696 0.7097
vn 0.7847 -0.0000 -0.6199
vn 0.7045 -0.0000 0.7097
vn 0.7249 -0.3003 -0.6199
vn 0.6509 -0.2696 0.7097
vn 0.5548 -0.5548 -0.6199
vn 0.4981 -0.4981 0.7097
vn 0.3003 -0.7249 -0.6199
vn 0.2696 -0.6509 0.7097
vn -0.0000 -0.7847 -0.6199
vn -0.0000 -0.7045 0.7097
vn -0.3003 -0.7249 -0.6199
vn -0.2696 -0.6509 0.7097
vn -0.5548 -0.5548 -0.6199
vn -0.4981 -0.4981 0.7097
vn -0.7249 -0.3003 -0.6199
vn -0.6509 -0.2696 0.7097
vn -0.7847 -0.0000 -0.6199
vn -0.7045 -0.0000 0.7097
vn -0.7249 0.3003 -0.6199
vn -0.6509 0.2696 0.7097
vn -0.5548 0.5548 -0.6199
vn -0.4981 0.4981 0.7097
vn -0.3003 0.7249 -0.6199
vn -0.2696 0.6509 0.7097
vn -0.0000 0.7780 -0.6283
vn -0.0000 0.7123 0.7019
vn 0.2977 0.7187 -0.6283
vn 0.2726 0.6580 0.7019
vn 0.5501 0.5501 -0.6283
vn 0.5036 0.5036 0.7019
vn 0.7187 0.2977 -0.6283
vn 0.6580 0.2726 0.7019
vn 0.7780 -0.0000 -0.6283
vn 0.7123 -0.0000 0.7019
vn 0.7187 -0.2977 -0.6283
vn 0.6580 -0.2726 0.7019
vn 0.5501 -0.5501 -0.6283
vn 0.5036 -0.5036 0.7019
vn 0.2977 -0.7187 -0.6283
vn 0.2726 -0.6580 0.7019
vn -0.0000 -0.7780 -0.6283
vn -0.0000 -0.7123 0.7019
vn -0.2977 -0.7187 -0.6283
vn -0.2726 -0.6580 0.7019
vn -0.5501 -0.5501 -0.6283
vn -0.5036 -0.5036 0.7019
vn -0.7187 -0.2977 -0.6283
vn -0.6580 -0.2726 0.7019
vn -0.7780 -0.0000 -0.6283
vn -0.7123 -0.0000 0.7019
vn -0.7187 0.2977 -0.6283
vn -0.6580 0.2726 0.7019
vn -0.5501 0.5501 -0.6283
vn -0.5036 0.5036 0.7019
vn -0.2977 0.7187 -0.6283
vn -0.2726 0.6580 0.7019
vn -0.0000 -0.7624 0.6471
vn -0.0000 -0.7295 -0.6840
vn 0.2918 -0.7044 0.6471
vn 0.2792 -0.6739 -0.6840
vn 0.5391 -0.5391 0.6471
vn 0.5158 -0.5158 -0.6840
vn 0.7044 -0.2918 0.6471
vn 0.6739 -0.2792 -0.6840
vn 0.7624 -0.0000 0.6471
vn 0.7295 -0.0000 -0.6840
vn 0.7044 0.2918 0.6471
vn 0.6739 0.2791 -0.6840
vn 0.5391 0.5391 0.6471
vn 0.5158 0.5158 -0.6840
vn 0.2918 0.7044 0.6471
vn 0.2792 0.6739 -0.6840
vn -0.0000 0.7624 0.6471
vn -0.0000 0.7295 -0.6840
vn -0.2918 0.7044 0.6471
vn -0.2792 0.6739 -0.6840
vn -0.5391 0.5391 0.6471
vn -0.5158 0.5158 -0.6840
vn -0.7044 0.2918 0.6471
vn -0.6739 0.2792 -0.6840
vn -0.7624 -0.0000 0.6471
vn -0.7295 -0.0000 -0.6840
vn -0.7044 -0.2918 0.6471
vn -0.6739 -0.2792 -0.6840
vn -0.5391 -0.5391 0.6471
vn -0.5158 -0.5158 -0.6840
vn -0.2918 -0.7044 0.6471
vn -0.2792 -0.6739 -0.6840
vn -0.5774 -0.5774 0.5774
vn -0.5774 0.5774 0.5774
vn -0.5774 -0.5774 -0.5774
vn -0.5774 0.5774 -0.5774
vn 0.5774 -0.5774 0.5774
vn 0.5774 0.5774 0.5774
vn 0.5774 -0.5774 -0.5774
vn 0.5774 0.5774 -0.5774
vt 0.401960 0.657253
vt 0.013469 0.657253
vt 0.013632 0.638651
vt 0.402123 0.638651
vt 0.014096 0.622881
vt 0.402587 0.622881
vt 0.446459 0.012609
vt 0.446459 0.401100
vt 0.430689 0.401564
vt 0.430689 0.013073
vt 0.412088 0.401727
vt 0.412088 0.013236
vt 0.393486 0.401564
vt 0.393486 0.013073
vt 0.377716 0.401100
vt 0.377716 0.012609
vt 0.633989 0.012609
vt 0.633989 0.401100
vt 0.618219 0.401564
vt 0.618219 0.013073
vt 0.599618 0.401727
vt 0.599618 0.013236
vt 0.581016 0.401564
vt 0.581016 0.013073
vt 0.565246 0.401100
vt 0.565246 0.012609
vt 0.471481 0.401727
vt 0.471481 0.013236
vt 0.487251 0.012772
vt 0.487251 0.401263
vt 0.505852 0.012609
vt 0.505852 0.401100
vt 0.524454 0.012772
vt 0.524454 0.401263
vt 0.540224 0.013236
vt 0.540224 0.401727
vt 0.844045 0.221592
vt 0.861567 0.214334
vt 0.880533 0.214334
vt 0.898056 0.221592
vt 0.911467 0.235003
vt 0.918725 0.252525
vt 0.918725 0.271491
vt 0.911467 0.289014
vt 0.898056 0.302425
vt 0.880533 0.309683
vt 0.861567 0.309683
vt 0.844045 0.302425
vt 0.830634 0.289014
vt 0.823376 0.271491
vt 0.823376 0.252525
vt 0.830634 0.235003
vt 0.402587 0.691624
vt 0.014096 0.691624
vt 0.013632 0.675855
vt 0.402123 0.675855
vt 0.488610 0.875331
vt 0.488610 0.894297
vt 0.481352 0.911819
vt 0.467941 0.925231
vt 0.450419 0.932489
vt 0.431453 0.932489
vt 0.413930 0.925231
vt 0.400519 0.911819
vt 0.393261 0.894297
vt 0.393261 0.875331
vt 0.400519 0.857809
vt 0.413930 0.844397
vt 0.431453 0.837139
vt 0.450419 0.837139
vt 0.467941 0.844397
vt 0.481352 0.857809
vt 0.846503 0.879154
vt 0.846503 0.707370
vt 0.849294 0.707345
vt 0.865105 0.878991
vt 0.851659 0.707276
vt 0.880875 0.878527
vt 0.358949 0.873993
vt 0.187698 0.844777
vt 0.187767 0.842412
vt 0.359413 0.858223
vt 0.187792 0.839621
vt 0.359576 0.839621
vt 0.187767 0.836831
vt 0.359413 0.821020
vt 0.187697 0.834466
vt 0.358949 0.805250
vt 0.884316 0.504889
vt 0.855100 0.676140
vt 0.852735 0.676071
vt 0.868546 0.504425
vt 0.849944 0.676046
vt 0.849944 0.504262
vt 0.847154 0.676071
vt 0.831343 0.504425
vt 0.844789 0.676140
vt 0.815573 0.504889
vt 0.867111 0.014558
vt 0.837895 0.185810
vt 0.835530 0.185740
vt 0.851341 0.014094
vt 0.832740 0.185716
vt 0.832740 0.013931
vt 0.829949 0.185740
vt 0.814138 0.014094
vt 0.827584 0.185810
vt 0.798368 0.014558
vt 0.072891 0.960356
vt 0.070879 0.962368
vt 0.068251 0.963457
vt 0.065406 0.963457
vt 0.062778 0.962368
vt 0.060766 0.960356
vt 0.059677 0.957728
vt 0.059677 0.954883
vt 0.060766 0.952255
vt 0.062778 0.950243
vt 0.065406 0.949154
vt 0.068251 0.949154
vt 0.070879 0.950243
vt 0.072891 0.952255
vt 0.073980 0.954883
vt 0.073980 0.957728
vt 0.812132 0.878527
vt 0.841348 0.707276
vt 0.843713 0.707345
vt 0.827902 0.878991
vt 0.854368 0.347185
vt 0.871890 0.339927
vt 0.890856 0.339927
vt 0.908379 0.347185
vt 0.921790 0.360596
vt 0.929048 0.378118
vt 0.929048 0.397085
vt 0.921790 0.414607
vt 0.908378 0.428018
vt 0.890856 0.435276
vt 0.871890 0.435276
vt 0.854368 0.428018
vt 0.840956 0.414607
vt 0.833698 0.397085
vt 0.833699 0.378118
vt 0.840957 0.360596
vt 0.913734 0.516560
vt 0.918725 0.498713
vt 0.916428 0.517288
vt 0.918725 0.517858
vt 0.678253 0.640011
vt 0.678253 0.620866
vt 0.680550 0.639441
vt 0.683243 0.638713
vt 0.685924 0.637938
vt 0.688183 0.637234
vt 0.719152 0.619145
vt 0.719152 0.638290
vt 0.716855 0.619715
vt 0.714161 0.620443
vt 0.711480 0.621218
vt 0.709221 0.621922
vt 0.794852 0.531402
vt 0.794852 0.550547
vt 0.792555 0.531972
vt 0.789861 0.532700
vt 0.787181 0.533475
vt 0.784921 0.534179
vt 0.016034 0.952255
vt 0.018046 0.950243
vt 0.020674 0.949154
vt 0.023519 0.949154
vt 0.026147 0.950243
vt 0.028159 0.952255
vt 0.029248 0.954883
vt 0.029248 0.957728
vt 0.028159 0.960356
vt 0.026148 0.962368
vt 0.023519 0.963457
vt 0.020674 0.963457
vt 0.018046 0.962368
vt 0.016034 0.960356
vt 0.014946 0.957728
vt 0.014946 0.954883
vt 0.908794 0.515081
vt 0.911054 0.515785
vt 0.781126 0.475940
vt 0.781126 0.258591
vt 0.789497 0.258664
vt 0.799728 0.476103
vt 0.796593 0.258873
vt 0.815497 0.476567
vt 0.760443 0.784529
vt 0.542749 0.765625
vt 0.542540 0.758528
vt 0.759979 0.768759
vt 0.542467 0.750158
vt 0.759816 0.750158
vt 0.542540 0.741787
vt 0.759979 0.731556
vt 0.542749 0.734690
vt 0.760443 0.715786
vt 0.262032 0.719227
vt 0.479726 0.738131
vt 0.479935 0.745228
vt 0.262496 0.734997
vt 0.480008 0.753599
vt 0.262659 0.753599
vt 0.479935 0.761969
vt 0.262496 0.772200
vt 0.479726 0.769066
vt 0.262032 0.787970
vt 0.722668 0.230541
vt 0.741572 0.012848
vt 0.748669 0.012639
vt 0.738438 0.230077
vt 0.757039 0.012565
vt 0.757039 0.229914
vt 0.765410 0.012639
vt 0.775641 0.230077
vt 0.772507 0.012848
vt 0.791411 0.230541
vt 0.941020 0.308765
vt 0.947055 0.302730
vt 0.954940 0.299464
vt 0.963475 0.299464
vt 0.971360 0.302730
vt 0.977395 0.308765
vt 0.980661 0.316650
vt 0.980661 0.325185
vt 0.977395 0.333070
vt 0.971360 0.339105
vt 0.963475 0.342371
vt 0.954940 0.342371
vt 0.947055 0.339105
vt 0.941020 0.333070
vt 0.937754 0.325185
vt 0.937754 0.316650
vt 0.746754 0.476567
vt 0.765659 0.258873
vt 0.772755 0.258664
vt 0.762524 0.476103
vt 0.738077 0.863329
vt 0.730819 0.880851
vt 0.717408 0.894262
vt 0.699885 0.901520
vt 0.680919 0.901520
vt 0.663397 0.894262
vt 0.649986 0.880851
vt 0.642728 0.863329
vt 0.642728 0.844363
vt 0.649986 0.826840
vt 0.663397 0.813429
vt 0.680919 0.806171
vt 0.699885 0.806171
vt 0.717408 0.813429
vt 0.730819 0.826840
vt 0.738077 0.844363
vt 0.958198 0.741535
vt 0.970339 0.741535
vt 0.970265 0.749905
vt 0.958125 0.749905
vt 0.970056 0.757002
vt 0.957916 0.757002
vt 0.957916 0.784563
vt 0.970056 0.784563
vt 0.970265 0.791659
vt 0.958125 0.791659
vt 0.970339 0.800030
vt 0.958198 0.800030
vt 0.970265 0.808401
vt 0.958125 0.808401
vt 0.970056 0.815497
vt 0.957916 0.815497
vt 0.961357 0.511010
vt 0.973497 0.511010
vt 0.973706 0.518107
vt 0.961566 0.518107
vt 0.973779 0.526477
vt 0.961639 0.526477
vt 0.973706 0.534848
vt 0.961566 0.534848
vt 0.973497 0.541944
vt 0.961357 0.541944
vt 0.970339 0.399146
vt 0.958198 0.399146
vt 0.957989 0.392050
vt 0.970130 0.392050
vt 0.957916 0.383679
vt 0.970056 0.383679
vt 0.957989 0.375308
vt 0.970130 0.375308
vt 0.958198 0.368212
vt 0.970339 0.368212
vt 0.958381 0.944636
vt 0.966916 0.944636
vt 0.974801 0.947902
vt 0.980836 0.953937
vt 0.984102 0.961822
vt 0.984102 0.970357
vt 0.980836 0.978242
vt 0.974801 0.984277
vt 0.966916 0.987543
vt 0.958381 0.987543
vt 0.950496 0.984277
vt 0.944461 0.978242
vt 0.941195 0.970357
vt 0.941195 0.961822
vt 0.944461 0.953937
vt 0.950496 0.947902
vt 0.957916 0.726067
vt 0.970056 0.726067
vt 0.970265 0.733164
vt 0.958125 0.733164
vt 0.984277 0.890499
vt 0.978242 0.896534
vt 0.970357 0.899800
vt 0.961822 0.899800
vt 0.953937 0.896534
vt 0.947902 0.890499
vt 0.944636 0.882614
vt 0.944636 0.874079
vt 0.947902 0.866194
vt 0.953937 0.860159
vt 0.961822 0.856893
vt 0.970357 0.856893
vt 0.978242 0.860159
vt 0.984277 0.866194
vt 0.987543 0.874079
vt 0.987543 0.882614
vt 0.718807 0.574654
vt 0.378877 0.574654
vt 0.378967 0.564423
vt 0.718897 0.564423
vt 0.379222 0.555750
vt 0.719152 0.555750
vt 0.378877 0.428436
vt 0.718807 0.428436
vt 0.719062 0.437109
vt 0.379132 0.437109
vt 0.719152 0.447340
vt 0.379222 0.447340
vt 0.719062 0.457571
vt 0.379132 0.457571
vt 0.718807 0.466244
vt 0.378877 0.466244
vt 0.378877 0.492093
vt 0.718807 0.492093
vt 0.719062 0.500766
vt 0.379132 0.500766
vt 0.719152 0.510997
vt 0.379222 0.510997
vt 0.719062 0.521228
vt 0.379132 0.521228
vt 0.718807 0.529901
vt 0.378877 0.529901
vt 0.658977 0.354414
vt 0.658977 0.014485
vt 0.667650 0.014229
vt 0.667650 0.354159
vt 0.677881 0.014140
vt 0.677881 0.354070
vt 0.688112 0.014229
vt 0.688112 0.354159
vt 0.696786 0.014485
vt 0.696786 0.354414
vt 0.566031 0.949225
vt 0.566031 0.959656
vt 0.562039 0.969293
vt 0.554663 0.976669
vt 0.545025 0.980661
vt 0.534594 0.980661
vt 0.524957 0.976669
vt 0.517581 0.969293
vt 0.513589 0.959656
vt 0.513589 0.949225
vt 0.517581 0.939587
vt 0.524957 0.932211
vt 0.534594 0.928219
vt 0.545026 0.928219
vt 0.554663 0.932211
vt 0.562039 0.939587
vt 0.719152 0.593558
vt 0.379222 0.593558
vt 0.378967 0.584885
vt 0.718897 0.584885
vt 0.932211 0.054009
vt 0.928219 0.044372
vt 0.928219 0.033941
vt 0.932211 0.024303
vt 0.939587 0.016927
vt 0.949225 0.012935
vt 0.959656 0.012935
vt 0.969293 0.016927
vt 0.976669 0.024303
vt 0.980661 0.033941
vt 0.980661 0.044372
vt 0.976669 0.054009
vt 0.969293 0.061386
vt 0.959656 0.065377
vt 0.949225 0.065377
vt 0.939587 0.061386
vt 0.142823 0.983695
vt 0.142823 0.935347
vt 0.153053 0.935437
vt 0.154914 0.983801
vt 0.161727 0.935692
vt 0.165164 0.984102
vt 0.987543 0.429533
vt 0.984106 0.477943
vt 0.975433 0.478198
vt 0.977293 0.429834
vt 0.965202 0.478287
vt 0.965202 0.429940
vt 0.954971 0.478198
vt 0.953111 0.429834
vt 0.946297 0.477943
vt 0.942860 0.429533
vt 0.984102 0.188668
vt 0.980665 0.237078
vt 0.971992 0.237334
vt 0.973852 0.188970
vt 0.961761 0.237423
vt 0.961761 0.189076
vt 0.951530 0.237334
vt 0.949670 0.188970
vt 0.942857 0.237078
vt 0.939419 0.188668
vt 0.935978 0.142798
vt 0.939416 0.094388
vt 0.948089 0.094133
vt 0.946229 0.142496
vt 0.958320 0.094043
vt 0.958320 0.142390
vt 0.968551 0.094133
vt 0.970411 0.142496
vt 0.977224 0.094388
vt 0.980661 0.142798
vt 0.646892 0.949225
vt 0.646892 0.959656
vt 0.642901 0.969293
vt 0.635524 0.976669
vt 0.625887 0.980661
vt 0.615456 0.980661
vt 0.605818 0.976669
vt 0.598442 0.969293
vt 0.594450 0.959656
vt 0.594450 0.949225
vt 0.598442 0.939587
vt 0.605819 0.932211
vt 0.615456 0.928219
vt 0.625887 0.928219
vt 0.635525 0.932211
vt 0.642901 0.939587
vt 0.120481 0.984102
vt 0.123918 0.935692
vt 0.132592 0.935437
vt 0.130732 0.983801
vt 0.353392 0.987543
vt 0.342002 0.982826
vt 0.333285 0.974108
vt 0.328567 0.962719
vt 0.328567 0.950391
vt 0.333285 0.939001
vt 0.342002 0.930284
vt 0.353392 0.925566
vt 0.365720 0.925566
vt 0.377109 0.930284
vt 0.385826 0.939001
vt 0.390544 0.950391
vt 0.390544 0.962719
vt 0.385826 0.974108
vt 0.377109 0.982826
vt 0.365720 0.987543
vt 0.124552 0.889498
vt 0.197555 0.889498
vt 0.197632 0.898334
vt 0.124642 0.899729
vt 0.197853 0.905824
vt 0.124897 0.908402
vt 0.922166 0.654798
vt 0.919588 0.727754
vt 0.912097 0.727534
vt 0.913492 0.654543
vt 0.903261 0.727456
vt 0.903261 0.654454
vt 0.894426 0.727534
vt 0.893031 0.654543
vt 0.886935 0.727754
vt 0.884357 0.654798
vt 0.874034 0.182024
vt 0.876612 0.109068
vt 0.884103 0.109289
vt 0.882708 0.182279
vt 0.892939 0.109366
vt 0.892939 0.182369
vt 0.901775 0.109289
vt 0.903170 0.182279
vt 0.909265 0.109068
vt 0.911843 0.182024
vt 0.228125 0.887798
vt 0.301080 0.890376
vt 0.300860 0.897867
vt 0.227869 0.896471
vt 0.300782 0.906702
vt 0.227780 0.906702
vt 0.300860 0.915538
vt 0.227869 0.916933
vt 0.301080 0.923029
vt 0.228125 0.925607
vt 0.834927 0.945700
vt 0.841298 0.952070
vt 0.844745 0.960393
vt 0.844745 0.969402
vt 0.841298 0.977725
vt 0.834927 0.984096
vt 0.826604 0.987543
vt 0.817595 0.987543
vt 0.809272 0.984096
vt 0.802902 0.977725
vt 0.799454 0.969402
vt 0.799454 0.960393
vt 0.802902 0.952070
vt 0.809272 0.945700
vt 0.817595 0.942252
vt 0.826604 0.942252
vt 0.124897 0.870593
vt 0.197853 0.873171
vt 0.197632 0.880662
vt 0.124642 0.879267
vt 0.706280 0.959656
vt 0.706280 0.949225
vt 0.710272 0.939587
vt 0.717648 0.932211
vt 0.727286 0.928219
vt 0.737717 0.928219
vt 0.747354 0.932211
vt 0.754730 0.939587
vt 0.758722 0.949225
vt 0.758722 0.959656
vt 0.754730 0.969293
vt 0.747354 0.976669
vt 0.737717 0.980661
vt 0.727285 0.980661
vt 0.717648 0.976669
vt 0.710272 0.969293
vt 0.932489 0.829261
vt 0.898463 0.829261
vt 0.898463 0.756419
vt 0.932489 0.756419
vt 0.946853 0.696786
vt 0.946853 0.662760
vt 0.956575 0.662760
vt 0.956575 0.696786
vt 0.935929 0.624527
vt 0.901904 0.624527
vt 0.901904 0.551684
vt 0.935929 0.551684
vt 0.189851 0.966898
vt 0.189851 0.932872
vt 0.199573 0.932872
vt 0.199573 0.966898
vt 0.842442 0.471406
vt 0.842442 0.461684
vt 0.915284 0.461684
vt 0.915284 0.471406
vt 0.775927 0.901520
vt 0.766205 0.901520
vt 0.766205 0.828678
vt 0.775927 0.828678
vt 0.012792 0.829261
vt 0.012792 0.819539
vt 0.134196 0.819539
vt 0.134196 0.829261
vt 0.317425 0.596139
vt 0.307703 0.596139
vt 0.307703 0.012836
vt 0.317425 0.012836
vt 0.757002 0.638290
vt 0.747280 0.638290
vt 0.747280 0.516887
vt 0.757002 0.516887
vt 0.352694 0.596139
vt 0.342972 0.596139
vt 0.342972 0.012836
vt 0.352694 0.012836
vt 0.012792 0.596139
vt 0.012792 0.012836
vt 0.134196 0.012836
vt 0.134196 0.596139
vt 0.281295 0.012836
vt 0.281295 0.596139
vt 0.159891 0.596139
vt 0.159891 0.012836
vt 0.098066 0.855329
vt 0.098066 0.922166
vt 0.013084 0.922166
vt 0.013084 0.855329
vt 0.726033 0.392264
vt 0.659197 0.392264
vt 0.659197 0.384973
vt 0.726033 0.384973
vt 0.607322 0.834683
vt 0.607322 0.901520
vt 0.522339 0.901520
vt 0.522339 0.834683
vt 0.894229 0.080862
vt 0.894229 0.014025
vt 0.901520 0.014025
vt 0.901520 0.080862
vt 0.678901 0.679581
vt 0.678901 0.672290
vt 0.763884 0.672290
vt 0.763884 0.679581
vt 0.729474 0.349253
vt 0.722183 0.349253
vt 0.722183 0.264271
vt 0.729474 0.264271
vt 0.917004 0.929048
vt 0.909713 0.929048
vt 0.909713 0.856206
vt 0.917004 0.856206
vt 0.617645 0.801324
vt 0.617645 0.808615
vt 0.398906 0.808615
vt 0.398906 0.801324
vt 0.877434 0.907993
vt 0.877434 0.915284
vt 0.804592 0.915284
vt 0.804592 0.907993
vt 0.796572 0.798293
vt 0.789281 0.798293
vt 0.789281 0.579554
vt 0.796572 0.579554
vt 0.650333 0.691624
vt 0.431595 0.691624
vt 0.431595 0.618782
vt 0.650333 0.618782
vt 0.013523 0.718569
vt 0.232262 0.718569
vt 0.232262 0.791411
vt 0.013523 0.791411
s 1
usemtl V1_Papercraft
f 1/1/1 2/2/2 4/3/4 3/4/3
f 3/4/3 4/3/4 6/5/6 5/6/5
f 5/7/5 6/8/6 8/9/8 7/10/7
f 7/10/7 8/9/8 10/11/10 9/12/9
f 9/12/9 10/11/10 12/13/12 11/14/11
f 11/14/11 12/13/12 14/15/14 13/16/13
f 13/17/13 14/18/14 16/19/16 15/20/15
f 15/20/15 16/19/16 18/21/18 17/22/17
f 17/22/17 18/21/18 20/23/20 19/24/19
f 19/24/19 20/23/20 22/25/22 21/26/21
f 21/27/21 22/28/22 24/29/24 23/30/23
f 23/30/23 24/29/24 26/31/26 25/32/25
f 25/32/25 26/31/26 28/33/28 27/34/27
f 27/34/27 28/33/28 30/35/30 29/36/29
f 4/37/4 2/38/2 32/39/32 30/40/30 28/41/28 26/42/26 24/43/24 22/44/22 20/45/20 18/46/18 16/47/16 14/48/14 12/49/12 10/50/10 8/51/8 6/52/6
f 29/53/29 30/54/30 32/55/32 31/56/31
f 31/56/31 32/55/32 2/2/2 1/1/1
f 1/57/1 3/58/3 5/59/5 7/60/7 9/61/9 11/62/11 13/63/13 15/64/15 17/65/17 19/66/19 21/67/21 23/68/23 25/69/25 27/70/27 29/71/29 31/72/31
f 33/73/33 34/74/34 36/75/36 35/76/35
f 35/76/35 36/75/36 38/77/38 37/78/37
f 37/79/37 38/80/38 40/81/40 39/82/39
f 39/82/39 40/81/40 42/83/42 41/84/41
f 41/84/41 42/83/42 44/85/44 43/86/43
f 43/86/43 44/85/44 46/87/46 45/88/45
f 45/89/45 46/90/46 48/91/48 47/92/47
f 47/92/47 48/91/48 50/93/50 49/94/49
f 49/94/49 50/93/50 52/95/52 51/96/51
f 51/96/51 52/95/52 54/97/54 53/98/53
f 53/99/53 54/100/54 56/101/56 55/102/55
f 55/102/55 56/101/56 58/103/58 57/104/57
f 57/104/57 58/103/58 60/105/60 59/106/59
f 59/106/59 60/105/60 62/107/62 61/108/61
f 36/109/36 34/110/34 64/111/64 62/112/62 60/113/60 58/114/58 56/115/56 54/116/54 52/117/52 50/118/50 48/119/48 46/120/46 44/121/44 42/122/42 40/123/40 38/124/38
f 61/125/61 62/126/62 64/127/64 63/128/63
f 63/128/63 64/127/64 34/74/34 33/73/33
f 33/129/33 35/130/35 37/131/37 39/132/39 41/133/41 43/134/43 45/135/45 47/136/47 49/137/49 51/138/51 53/139/53 55/140/55 57/141/57 59/142/59 61/143/61 63/144/63
f 65/145/65 81/146/81 66/147/66
f 66/147/66 81/146/81 67/148/67
f 67/149/67 81/150/81 68/151/68
f 68/151/68 81/150/81 69/152/69
f 69/152/69 81/150/81 70/153/70
f 70/153/70 81/150/81 71/154/71
f 71/155/71 81/156/81 72/157/72
f 72/157/72 81/156/81 73/158/73
f 73/158/73 81/156/81 74/159/74
f 74/159/74 81/156/81 75/160/75
f 75/161/75 81/162/81 76/163/76
f 76/163/76 81/162/81 77/164/77
f 77/164/77 81/162/81 78/165/78
f 78/165/78 81/162/81 79/166/79
f 65/167/65 66/168/66 67/169/67 68/170/68 69/171/69 70/172/70 71/173/71 72/174/72 73/175/73 74/176/74 75/177/75 76/178/76 77/179/77 78/180/78 79/181/79 80/182/80
f 79/183/79 81/146/81 80/184/80
f 80/184/80 81/146/81 65/145/65
f 82/185/82 83/186/83 85/187/85 84/188/84
f 84/188/84 85/187/85 87/189/87 86/190/86
f 86/191/86 87/192/87 89/193/89 88/194/88
f 88/194/88 89/193/89 91/195/91 90/196/90
f 90/196/90 91/195/91 93/197/93 92/198/92
f 92/198/92 93/197/93 95/199/95 94/200/94
f 94/201/94 95/202/95 97/203/97 96/204/96
f 96/204/96 97/203/97 99/205/99 98/206/98
f 98/206/98 99/205/99 101/207/101 100/208/100
f 100/208/100 101/207/101 103/209/103 102/210/102
f 102/211/102 103/212/103 105/213/105 104/214/104
f 104/214/104 105/213/105 107/215/107 106/216/106
f 106/216/106 107/215/107 109/217/109 108/218/108
f 108/218/108 109/217/109 111/219/111 110/220/110
f 85/221/85 83/222/83 113/223/113 111/224/111 109/225/109 107/226/107 105/227/105 103/228/103 101/229/101 99/230/99 97/231/97 95/232/95 93/233/93 91/234/91 89/235/89 87/236/87
f 110/237/110 111/238/111 113/239/113 112/240/112
f 112/240/112 113/239/113 83/186/83 82/185/82
f 82/241/82 84/242/84 86/243/86 88/244/88 90/245/90 92/246/92 94/247/94 96/248/96 98/249/98 100/250/100 102/251/102 104/252/104 106/253/106 108/254/108 110/255/110 112/256/112
f 114/257/1 115/258/2 117/259/4 116/260/3
f 116/260/3 117/259/4 119/261/6 118/262/5
f 118/263/5 119/264/6 121/265/8 120/266/7
f 120/266/7 121/265/8 123/267/10 122/268/9
f 122/268/9 123/267/10 125/269/12 124/270/11
f 124/270/11 125/269/12 127/271/14 126/272/13
f 126/273/13 127/274/14 129/275/16 128/276/15
f 128/276/15 129/275/16 131/277/18 130/278/17
f 130/278/17 131/277/18 133/279/20 132/280/19
f 132/280/19 133/279/20 135/281/22 134/282/21
f 134/283/21 135/284/22 137/285/24 136/286/23
f 136/286/23 137/285/24 139/287/26 138/288/25
f 138/288/25 139/287/26 141/289/28 140/290/27
f 140/290/27 141/289/28 143/291/30 142/292/29
f 117/293/4 115/294/2 145/295/32 143/296/30 141/297/28 139/298/26 137/299/24 135/300/22 133/301/20 131/302/18 129/303/16 127/304/14 125/305/12 123/306/10 121/307/8 119/308/6
f 142/309/29 143/310/30 145/311/32 144/312/31
f 144/312/31 145/311/32 115/258/2 114/257/1
f 114/313/1 116/314/3 118/315/5 120/316/7 122/317/9 124/318/11 126/319/13 128/320/15 130/321/17 132/322/19 134/323/21 136/324/23 138/325/25 140/326/27 142/327/29 144/328/31
f 146/329/1 147/330/2 149/331/4 148/332/3
f 148/332/3 149/331/4 151/333/6 150/334/5
f 150/335/5 151/336/6 153/337/8 152/338/7
f 152/338/7 153/337/8 155/339/10 154/340/9
f 154/340/9 155/339/10 157/341/12 156/342/11
f 156/342/11 157/341/12 159/343/14 158/344/13
f 158/345/13 159/346/14 161/347/16 160/348/15
f 160/348/15 161/347/16 163/349/18 162/350/17
f 162/350/17 163/349/18 165/351/20 164/352/19
f 164/352/19 165/351/20 167/353/22 166/354/21
f 166/355/21 167/356/22 169/357/24 168/358/23
f 168/358/23 169/357/24 171/359/26 170/360/25
f 170/360/25 171/359/26 173/361/28 172/362/27
f 172/362/27 173/361/28 175/363/30 174/364/29
f 149/365/4 147/366/2 177/367/32 175/368/30 173/369/28 171/370/26 169/371/24 167/372/22 165/373/20 163/374/18 161/375/16 159/376/14 157/377/12 155/378/10 153/379/8 151/380/6
f 174/381/29 175/382/30 177/383/32 176/384/31
f 176/384/31 177/383/32 147/330/2 146/329/1
f 146/385/1 148/386/3 150/387/5 152/388/7 154/389/9 156/390/11 158/391/13 160/392/15 162/393/17 164/394/19 166/395/21 168/396/23 170/397/25 172/398/27 174/399/29 176/400/31
f 178/401/114 179/402/115 181/403/117 180/404/116
f 180/404/116 181/403/117 183/405/119 182/406/118
f 182/407/118 183/408/119 185/409/121 184/410/120
f 184/410/120 185/409/121 187/411/123 186/412/122
f 186/412/122 187/411/123 189/413/125 188/414/124
f 188/414/124 189/413/125 191/415/127 190/416/126
f 190/417/126 191/418/127 193/419/129 192/420/128
f 192/420/128 193/419/129 195/421/131 194/422/130
f 194/422/130 195/421/131 197/423/133 196/424/132
f 196/424/132 197/423/133 199/425/135 198/426/134
f 198/427/134 199/428/135 201/429/137 200/430/136
f 200/430/136 201/429/137 203/431/139 202/432/138
f 202/432/138 203/431/139 205/433/141 204/434/140
f 204/434/140 205/433/141 207/435/143 206/436/142
f 181/437/117 179/438/115 209/439/145 207/440/143 205/441/141 203/442/139 201/443/137 199/444/135 197/445/133 195/446/131 193/447/129 191/448/127 189/449/125 187/450/123 185/451/121 183/452/119
f 206/453/142 207/454/143 209/455/145 208/456/144
f 208/456/144 209/455/145 179/402/115 178/401/114
f 178/457/114 180/458/116 182/459/118 184/460/120 186/461/122 188/462/124 190/463/126 192/464/128 194/465/130 196/466/132 198/467/134 200/468/136 202/469/138 204/470/140 206/471/142 208/472/144
f 210/473/146 211/474/147 213/475/149 212/476/148
f 212/476/148 213/475/149 215/477/151 214/478/150
f 214/479/150 215/480/151 217/481/153 216/482/152
f 216/482/152 217/481/153 219/483/155 218/484/154
f 218/484/154 219/483/155 221/485/157 220/486/156
f 220/486/156 221/485/157 223/487/159 222/488/158
f 222/489/158 223/490/159 225/491/161 224/492/160
f 224/492/160 225/491/161 227/493/163 226/494/162
f 226/494/162 227/493/163 229/495/165 228/496/164
f 228/496/164 229/495/165 231/497/167 230/498/166
f 230/499/166 231/500/167 233/501/169 232/502/168
f 232/502/168 233/501/169 235/503/171 234/504/170
f 234/504/170 235/503/171 237/505/173 236/506/172
f 236/506/172 237/505/173 239/507/175 238/508/174
f 213/509/149 211/510/147 241/511/177 239/512/175 237/513/173 235/514/171 233/515/169 231/516/167 229/517/165 227/518/163 225/519/161 223/520/159 221/521/157 219/522/155 217/523/153 215/524/151
f 238/525/174 239/526/175 241/527/177 240/528/176
f 240/528/176 241/527/177 211/474/147 210/473/146
f 210/529/146 212/530/148 214/531/150 216/532/152 218/533/154 220/534/156 222/535/158 224/536/160 226/537/162 228/538/164 230/539/166 232/540/168 234/541/170 236/542/172 238/543/174 240/544/176
f 242/545/178 243/546/179 245/547/181 244/548/180
f 244/549/180 245/550/181 249/551/185 248/552/184
f 248/553/184 249/554/185 247/555/183 246/556/182
f 246/557/182 247/558/183 243/559/179 242/560/178
f 244/561/180 248/562/184 246/563/182 242/564/178
f 249/565/185 245/566/181 243/567/179 247/568/183
f 250/569/178 251/570/179 253/571/181 252/572/180
f 252/573/180 253/574/181 257/575/185 256/576/184
f 256/577/184 257/578/185 255/579/183 254/580/182
f 254/581/182 255/582/183 251/583/179 250/584/178
f 252/585/180 256/586/184 254/587/182 250/588/178
f 257/589/185 253/590/181 251/591/179 255/592/183
f 258/593/178 259/594/179 261/595/181 260/596/180
f 260/597/180 261/598/181 265/599/185 264/600/184
f 264/601/184 265/602/185 263/603/183 262/604/182
f 262/605/182 263/606/183 259/607/179 258/608/178
f 260/609/180 264/610/184 262/611/182 258/612/178
f 265/613/185 261/614/181 259/615/179 263/616/183
f 266/617/178 267/618/179 269/619/181 268/620/180
f 268/621/180 269/622/181 273/623/185 272/624/184
f 272/625/184 273/626/185 271/627/183 270/628/182
f 270/629/182 271/630/183 267/631/179 266/632/178
f 268/633/180 272/634/184 270/635/182 266/636/178
f 273/637/185 269/638/181 267/639/179 271/640/183
