# Blender 5.2.1 LTS
# www.blender.org
mtllib Raidar-X.mtl
o cintura
v -5.018746 1.309108 -0.936495
v -5.261128 1.309108 -0.904585
v -5.486993 1.309108 -0.811028
v -5.680948 1.309108 -0.662202
v -5.829774 1.309108 -0.468247
v -5.923330 1.309108 -0.242383
v -5.955241 1.309108 0.000000
v -5.923330 1.309108 0.242383
v -5.829774 1.309108 0.468247
v -5.680948 1.309108 0.662202
v -5.486993 1.309108 0.811028
v -5.261128 1.309108 0.904585
v -5.018746 1.309108 0.936495
v -4.776363 1.309108 0.904585
v -4.550498 1.309108 0.811028
v -4.356544 1.309108 0.662202
v -4.207717 1.309108 0.468247
v -4.114161 1.309108 0.242383
v -4.082251 1.309108 0.000000
v -4.114161 1.309108 -0.242383
v -4.207717 1.309108 -0.468247
v -4.356544 1.309108 -0.662202
v -4.550498 1.309108 -0.811028
v -4.776363 1.309108 -0.904585
v -5.018746 1.098284 -1.121167
v -5.308926 1.098284 -1.082964
v -5.579329 1.098284 -0.970959
v -5.811531 1.098284 -0.792785
v -5.989705 1.098284 -0.560584
v -6.101710 1.098284 -0.290179
v -6.139914 1.098284 -0.000000
v -6.101710 1.098284 0.290179
v -5.989705 1.098284 0.560584
v -5.811531 1.098284 0.792785
v -5.579329 1.098284 0.970959
v -5.308926 1.098284 1.082964
v -5.018746 1.098284 1.121167
v -4.728567 1.098284 1.082964
v -4.458162 1.098284 0.970959
v -4.225961 1.098284 0.792785
v -4.047787 1.098284 0.560584
v -3.935781 1.098284 0.290179
v -3.897579 1.098284 -0.000000
v -3.935781 1.098284 -0.290179
v -4.047787 1.098284 -0.560584
v -4.225961 1.098284 -0.792785
v -4.458162 1.098284 -0.970959
v -4.728567 1.098284 -1.082964
v -5.018746 0.973807 -1.121167
v -5.308926 0.973807 -1.082964
v -5.579329 0.973807 -0.970959
v -5.811531 0.973807 -0.792785
v -5.989705 0.973807 -0.560584
v -6.101710 0.973807 -0.290179
v -6.139914 0.973807 -0.000000
v -6.101710 0.973807 0.290179
v -5.989705 0.973807 0.560584
v -5.811531 0.973807 0.792785
v -5.579329 0.973807 0.970959
v -5.308926 0.973807 1.082964
v -5.018746 0.973807 1.121167
v -4.728567 0.973807 1.082964
v -4.458162 0.973807 0.970959
v -4.225961 0.973807 0.792785
v -4.047787 0.973807 0.560584
v -3.935781 0.973807 0.290179
v -3.897579 0.973807 -0.000000
v -3.935781 0.973807 -0.290179
v -4.047787 0.973807 -0.560584
v -4.225961 0.973807 -0.792785
v -4.458162 0.973807 -0.970959
v -4.728567 0.973807 -1.082964
vn -0.2889 0.6557 0.6975
vn -0.5990 0.6557 -0.4596
vn 0.7486 0.6557 -0.0985
vn -0.0985 0.6557 0.7486
vn -0.6975 0.6557 -0.2889
vn 0.6975 0.6557 -0.2889
vn 0.0985 0.6557 0.7486
vn -0.7486 0.6557 -0.0985
vn 0.5990 0.6557 -0.4596
vn 0.2889 0.6557 0.6975
vn -0.7486 0.6557 0.0985
vn 0.4596 0.6557 -0.5990
vn 0.4596 0.6557 0.5990
vn -0.6975 0.6557 0.2889
vn 0.2889 0.6557 -0.6975
vn -0.0985 0.6557 -0.7486
vn 0.5990 0.6557 0.4596
vn -0.5990 0.6557 0.4596
vn 0.0985 0.6557 -0.7486
vn -0.2889 0.6557 -0.6975
vn 0.6975 0.6557 0.2889
vn -0.4596 0.6557 0.5990
vn -0.4596 0.6557 -0.5990
vn 0.7486 0.6557 0.0985
vn 0.1305 -0.0000 -0.9914
vn -0.3827 -0.0000 -0.9239
vn 0.9239 -0.0000 0.3827
vn -0.6088 -0.0000 0.7934
vn -0.6088 -0.0000 -0.7934
vn 0.9914 -0.0000 0.1305
vn -0.3827 -0.0000 0.9239
vn -0.7934 -0.0000 -0.6088
vn 0.9914 -0.0000 -0.1305
vn -0.1305 -0.0000 0.9914
vn -0.9239 -0.0000 -0.3827
vn 0.9239 -0.0000 -0.3827
vn 0.1305 -0.0000 0.9914
vn -0.9914 -0.0000 -0.1305
vn 0.7934 -0.0000 -0.6088
vn 0.3827 -0.0000 0.9239
vn -0.9914 -0.0000 0.1305
vn 0.6088 -0.0000 -0.7934
vn 0.6088 -0.0000 0.7934
vn -0.9239 -0.0000 0.3827
vn 0.3827 -0.0000 -0.9239
vn -0.1305 -0.0000 -0.9914
vn 0.7934 -0.0000 0.6088
vn -0.7934 -0.0000 0.6088
vn -0.0000 1.0000 -0.0000
vn -0.0000 -1.0000 -0.0000
vt 0.328741 0.315075
vt 0.361705 0.306623
vt 0.374892 0.344548
vt 0.335428 0.354666
vt 0.492980 0.161164
vt 0.498017 0.127509
vt 0.538084 0.130113
vt 0.532054 0.170404
vt 0.107254 0.193510
vt 0.123064 0.223643
vt 0.089193 0.245204
vt 0.070264 0.209129
vt 0.294831 0.317919
vt 0.294831 0.358070
vt 0.482408 0.193510
vt 0.519398 0.209129
vt 0.096682 0.161164
vt 0.057608 0.170405
vt 0.260921 0.315075
vt 0.254234 0.354666
vt 0.466598 0.223643
vt 0.500469 0.245204
vt 0.091645 0.127509
vt 0.051578 0.130113
vt 0.227957 0.306624
vt 0.214770 0.344548
vt 0.445989 0.250722
vt 0.475797 0.277624
vt 0.092284 0.093486
vt 0.052342 0.089381
vt 0.196862 0.292800
vt 0.177543 0.327999
vt 0.421159 0.273992
vt 0.446070 0.305481
vt 0.098580 0.060044
vt 0.059880 0.049344
vt 0.491082 0.060044
vt 0.479305 0.028118
vt 0.515682 0.011122
vt 0.529782 0.049344
vt 0.168503 0.273992
vt 0.143592 0.305481
vt 0.392800 0.292800
vt 0.412119 0.327999
vt 0.110357 0.028118
vt 0.073980 0.011122
vt 0.497378 0.093486
vt 0.537319 0.089381
vt 0.143673 0.250722
vt 0.113865 0.277624
vt 0.029334 0.011122
vt 0.029334 0.051862
vt 0.011122 0.051862
vt 0.011122 0.011122
vt 0.029334 0.907398
vt 0.029334 0.948138
vt 0.011122 0.948138
vt 0.011122 0.907398
vt 0.029334 0.296301
vt 0.029334 0.337041
vt 0.011122 0.337041
vt 0.011122 0.296301
vt 0.029334 0.581480
vt 0.029334 0.622219
vt 0.011122 0.622219
vt 0.011122 0.581480
vt 0.029334 0.866658
vt 0.011122 0.866658
vt 0.029334 0.255561
vt 0.011122 0.255561
vt 0.029334 0.540740
vt 0.011122 0.540740
vt 0.029334 0.825919
vt 0.011122 0.825919
vt 0.029334 0.214821
vt 0.011122 0.214821
vt 0.029334 0.500000
vt 0.011122 0.500000
vt 0.029334 0.785179
vt 0.011122 0.785179
vt 0.029334 0.174081
vt 0.011122 0.174081
vt 0.029334 0.459260
vt 0.011122 0.459260
vt 0.029334 0.744439
vt 0.011122 0.744439
vt 0.029334 0.133342
vt 0.011122 0.133342
vt 0.029334 0.418520
vt 0.011122 0.418520
vt 0.029334 0.703699
vt 0.011122 0.703699
vt 0.029334 0.092602
vt 0.011122 0.092602
vt 0.029334 0.377781
vt 0.011122 0.377781
vt 0.029334 0.662959
vt 0.011122 0.662959
vt 0.029334 0.988878
vt 0.011122 0.988878
vt 0.077400 0.920603
vt 0.163803 0.712009
vt 0.301250 0.891133
vt 0.284235 0.920603
vt 0.260172 0.944665
vt 0.230702 0.961680
vt 0.197832 0.970487
vt 0.163803 0.970487
vt 0.130933 0.961680
vt 0.101463 0.944665
vt 0.060386 0.891133
vt 0.051578 0.858263
vt 0.051578 0.824233
vt 0.060386 0.791363
vt 0.077400 0.761893
vt 0.101463 0.737831
vt 0.130933 0.720816
vt 0.197832 0.712009
vt 0.230702 0.720816
vt 0.260172 0.737831
vt 0.284235 0.761893
vt 0.301250 0.791363
vt 0.310057 0.824233
vt 0.310057 0.858263
vt 0.266025 0.390859
vt 0.361028 0.514670
vt 0.301306 0.658850
vt 0.051578 0.555409
vt 0.051578 0.514670
vt 0.062122 0.475318
vt 0.082492 0.440036
vt 0.111300 0.411229
vt 0.146581 0.390859
vt 0.185933 0.380315
vt 0.226673 0.380315
vt 0.301306 0.411229
vt 0.330114 0.440036
vt 0.350484 0.475318
vt 0.361028 0.555409
vt 0.350484 0.594761
vt 0.330114 0.630043
vt 0.266025 0.679220
vt 0.226673 0.689764
vt 0.185933 0.689764
vt 0.146581 0.679220
vt 0.111300 0.658850
vt 0.082492 0.630043
vt 0.062122 0.594761
s 0
f 12/1/1 11/2/1 35/3/1 36/4/1
f 5/5/2 4/6/2 28/7/2 29/8/2
f 20/9/3 19/10/3 43/11/3 44/12/3
f 13/13/4 12/1/4 36/4/4 37/14/4
f 6/15/5 5/5/5 29/8/5 30/16/5
f 21/17/6 20/9/6 44/12/6 45/18/6
f 14/19/7 13/13/7 37/14/7 38/20/7
f 7/21/8 6/15/8 30/16/8 31/22/8
f 22/23/9 21/17/9 45/18/9 46/24/9
f 15/25/10 14/19/10 38/20/10 39/26/10
f 8/27/11 7/21/11 31/22/11 32/28/11
f 23/29/12 22/23/12 46/24/12 47/30/12
f 16/31/13 15/25/13 39/26/13 40/32/13
f 9/33/14 8/27/14 32/28/14 33/34/14
f 24/35/15 23/29/15 47/30/15 48/36/15
f 2/37/16 1/38/16 25/39/16 26/40/16
f 17/41/17 16/31/17 40/32/17 41/42/17
f 10/43/18 9/33/18 33/34/18 34/44/18
f 1/45/19 24/35/19 48/36/19 25/46/19
f 3/47/20 2/37/20 26/40/20 27/48/20
f 18/49/21 17/41/21 41/42/21 42/50/21
f 11/2/22 10/43/22 34/44/22 35/3/22
f 4/6/23 3/47/23 27/48/23 28/7/23
f 19/10/24 18/49/24 42/50/24 43/11/24
f 25/51/25 48/52/25 72/53/25 49/54/25
f 27/55/26 26/56/26 50/57/26 51/58/26
f 42/59/27 41/60/27 65/61/27 66/62/27
f 35/63/28 34/64/28 58/65/28 59/66/28
f 28/67/29 27/55/29 51/58/29 52/68/29
f 43/69/30 42/59/30 66/62/30 67/70/30
f 36/71/31 35/63/31 59/66/31 60/72/31
f 29/73/32 28/67/32 52/68/32 53/74/32
f 44/75/33 43/69/33 67/70/33 68/76/33
f 37/77/34 36/71/34 60/72/34 61/78/34
f 30/79/35 29/73/35 53/74/35 54/80/35
f 45/81/36 44/75/36 68/76/36 69/82/36
f 38/83/37 37/77/37 61/78/37 62/84/37
f 31/85/38 30/79/38 54/80/38 55/86/38
f 46/87/39 45/81/39 69/82/39 70/88/39
f 39/89/40 38/83/40 62/84/40 63/90/40
f 32/91/41 31/85/41 55/86/41 56/92/41
f 47/93/42 46/87/42 70/88/42 71/94/42
f 40/95/43 39/89/43 63/90/43 64/96/43
f 33/97/44 32/91/44 56/92/44 57/98/44
f 48/52/45 47/93/45 71/94/45 72/53/45
f 26/56/46 25/99/46 49/100/46 50/57/46
f 41/60/47 40/95/47 64/96/47 65/61/47
f 34/64/48 33/97/48 57/98/48 58/65/48
f 9/101/49 17/102/49 1/103/49
f 1/103/49 2/104/49 3/105/49
f 3/105/49 4/106/49 5/107/49
f 5/107/49 6/108/49 7/109/49
f 7/109/49 8/110/49 9/101/49
f 9/101/49 10/111/49 11/112/49
f 11/112/49 12/113/49 13/114/49
f 13/114/49 14/115/49 15/116/49
f 15/116/49 16/117/49 17/102/49
f 17/102/49 18/118/49 19/119/49
f 19/119/49 20/120/49 21/121/49
f 21/121/49 22/122/49 23/123/49
f 23/123/49 24/124/49 1/103/49
f 1/103/49 3/105/49 5/107/49
f 5/107/49 7/109/49 1/103/49
f 7/109/49 9/101/49 1/103/49
f 9/101/49 11/112/49 13/114/49
f 13/114/49 15/116/49 17/102/49
f 17/102/49 19/119/49 21/121/49
f 21/121/49 23/123/49 17/102/49
f 23/123/49 1/103/49 17/102/49
f 9/101/49 13/114/49 17/102/49
f 67/125/50 63/126/50 59/127/50
f 51/128/50 50/129/50 49/130/50
f 49/130/50 72/131/50 51/128/50
f 72/131/50 71/132/50 51/128/50
f 71/132/50 70/133/50 69/134/50
f 69/134/50 68/135/50 71/132/50
f 68/135/50 67/125/50 71/132/50
f 67/125/50 66/136/50 65/137/50
f 65/137/50 64/138/50 63/126/50
f 63/126/50 62/139/50 59/127/50
f 62/139/50 61/140/50 59/127/50
f 61/140/50 60/141/50 59/127/50
f 59/127/50 58/142/50 57/143/50
f 57/143/50 56/144/50 55/145/50
f 55/145/50 54/146/50 51/128/50
f 54/146/50 53/147/50 51/128/50
f 53/147/50 52/148/50 51/128/50
f 67/125/50 65/137/50 63/126/50
f 59/127/50 57/143/50 51/128/50
f 57/143/50 55/145/50 51/128/50
f 51/128/50 71/132/50 59/127/50
f 71/132/50 67/125/50 59/127/50
o Círculo
v -5.023148 0.919446 -1.272191
v -5.352416 0.919446 -1.228842
v -5.570022 0.919446 -1.139257
v -5.922723 0.919446 -0.899575
v -6.124898 0.919446 -0.636096
v -6.251990 0.919446 -0.329267
v -6.295340 0.919446 -0.000000
v -6.251990 0.919446 0.329267
v -6.124898 0.919446 0.636096
v -5.922723 0.919446 0.899575
v -5.570022 0.919446 1.139257
v -5.352416 0.919446 1.228842
v -5.023148 0.919446 1.272191
v -4.693881 0.919446 1.228842
v -4.476275 0.919446 1.139257
v -4.123573 0.919446 0.899575
v -3.921398 0.919446 0.636096
v -3.794306 0.919446 0.329267
v -3.750957 0.919446 -0.000000
v -3.794306 0.919446 -0.329267
v -3.921398 0.919446 -0.636096
v -4.123573 0.919446 -0.899575
v -4.476275 0.919446 -1.139257
v -4.693881 0.919446 -1.228842
v -4.123573 0.388860 0.899575
v -3.921398 0.388860 0.636096
v -6.124898 0.388860 0.636096
v -5.922723 0.388860 0.899575
v -4.693881 0.388860 -1.228842
v -5.023148 0.388860 -1.272191
v -5.352416 0.388860 -1.228842
v -5.570022 0.388860 -1.139257
v -3.794306 0.388860 0.329267
v -5.570022 0.388860 1.139257
v -5.922723 0.388860 -0.899575
v -3.750957 0.388860 -0.000000
v -5.352416 0.388860 1.228842
v -6.124898 0.388860 -0.636096
v -3.794306 0.388860 -0.329267
v -5.023148 0.388860 1.272191
v -6.251990 0.388860 -0.329267
v -3.921398 0.388860 -0.636096
v -4.693881 0.388860 1.228842
v -6.295340 0.388860 -0.000000
v -4.123573 0.388860 -0.899575
v -4.476275 0.388860 1.139257
v -6.251990 0.388860 0.329267
v -4.476275 0.388860 -1.139257
v -5.023148 -0.218668 -1.272191
v -5.023148 -0.495298 -1.043905
v -5.293577 -0.495298 -1.008302
v -5.352416 -0.218668 -1.228842
v -5.343688 -0.495298 -0.987672
v -5.570022 -0.218668 -1.139257
v -5.343688 -0.495298 0.987672
v -5.570022 -0.218668 1.139257
v -5.293577 -0.495298 1.008302
v -5.352416 -0.218668 1.228842
v -5.023148 -0.495298 1.043905
v -5.023148 -0.218668 1.272191
v -4.752719 -0.495298 1.008302
v -4.693881 -0.218668 1.228842
v -4.702609 -0.495298 0.987672
v -4.476275 -0.218668 1.139257
v -4.476275 -0.218668 -1.139257
v -4.702609 -0.495298 -0.987672
v -4.752719 -0.495298 -1.008302
v -4.693881 -0.218668 -1.228842
vn -0.0000 1.0000 -0.0000
vn -0.1305 -0.0000 -0.9914
vn 0.3807 -0.0000 -0.9247
vn -0.9239 -0.0000 0.3827
vn 0.5621 -0.0000 0.8271
vn 0.5621 -0.0000 -0.8271
vn -0.9914 -0.0000 0.1305
vn 0.3807 -0.0000 0.9247
vn 0.7934 -0.0000 -0.6088
vn -0.9914 -0.0000 -0.1305
vn 0.1305 -0.0000 0.9914
vn 0.9239 -0.0000 -0.3827
vn -0.9239 -0.0000 -0.3827
vn -0.1305 -0.0000 0.9914
vn 0.9914 -0.0000 -0.1305
vn -0.7934 -0.0000 -0.6088
vn -0.3807 -0.0000 0.9247
vn 0.9914 -0.0000 0.1305
vn -0.5621 -0.0000 -0.8271
vn -0.5621 -0.0000 0.8271
vn 0.9239 -0.0000 0.3827
vn -0.3807 -0.0000 -0.9247
vn 0.1305 -0.0000 -0.9914
vn -0.7934 -0.0000 0.6088
vn 0.7934 -0.0000 0.6088
vn -0.1010 -0.6332 -0.7673
vn -0.2946 -0.6332 -0.7157
vn -0.2946 -0.6332 0.7157
vn -0.1010 -0.6332 0.7673
vn 0.1010 -0.6332 0.7673
vn 0.2946 -0.6332 0.7157
vn 0.2946 -0.6332 -0.7157
vn 0.1010 -0.6332 -0.7673
vn -0.7740 -0.6332 -0.0000
vn 0.7740 -0.6332 -0.0000
vn -0.0000 -1.0000 -0.0000
vn -1.0000 -0.0000 -0.0000
vn 1.0000 -0.0000 -0.0000
vt 0.693184 0.151338
vt 0.533305 0.386607
vt 0.538351 0.218078
vt 0.541461 0.145168
vt 0.500000 0.145168
vt 0.500000 0.078929
vt 0.541461 0.078929
vt 0.458539 0.145168
vt 0.429161 0.145168
vt 0.429161 0.078929
vt 0.458539 0.078929
vt 0.831379 0.145168
vt 0.789918 0.145168
vt 0.789918 0.078929
vt 0.831379 0.078929
vt 0.127160 0.145168
vt 0.073924 0.145168
vt 0.073924 0.078929
vt 0.127160 0.078929
vt 0.375925 0.145168
vt 0.375925 0.078929
vt 0.748458 0.145168
vt 0.748458 0.078929
vt 0.044546 0.145168
vt 0.044546 0.078929
vt 0.334464 0.145168
vt 0.334464 0.078929
vt 0.706997 0.145168
vt 0.706997 0.078929
vt 0.003085 0.145168
vt 0.003085 0.078929
vt 0.293003 0.145168
vt 0.293003 0.078929
vt 0.665536 0.145168
vt 0.665536 0.078929
vt 0.996915 0.145168
vt 0.955454 0.145168
vt 0.955454 0.078929
vt 0.996915 0.078929
vt 0.251542 0.145168
vt 0.251542 0.078929
vt 0.624075 0.145168
vt 0.624075 0.078929
vt 0.926076 0.145168
vt 0.926076 0.078929
vt 0.210082 0.145168
vt 0.210082 0.078929
vt 0.570839 0.145168
vt 0.570839 0.078929
vt 0.872840 0.145168
vt 0.872840 0.078929
vt 0.168621 0.145168
vt 0.168621 0.078929
vt 0.031563 0.472967
vt 0.072881 0.469522
vt 0.072881 0.514298
vt 0.038946 0.517127
vt 0.003085 0.480182
vt 0.032388 0.518789
vt 0.945390 0.154782
vt 0.973868 0.161998
vt 0.944565 0.200604
vt 0.938007 0.198943
vt 0.904073 0.151338
vt 0.904073 0.196114
vt 0.862755 0.154782
vt 0.870139 0.198943
vt 0.834277 0.161998
vt 0.863580 0.200604
vt 0.114198 0.472967
vt 0.142676 0.480182
vt 0.113373 0.518789
vt 0.106815 0.517127
vt 0.294132 0.170262
vt 0.338753 0.435789
vt 0.294132 0.416865
vt 0.214099 0.416865
vt 0.169478 0.151338
vt 0.214099 0.170262
vt 0.500000 0.003085
vt 0.541461 0.003085
vt 0.254116 0.423886
vt 0.458539 0.003085
vt 0.570839 0.003085
vt 0.414598 0.151338
vt 0.414598 0.435789
vt 0.338753 0.151338
vt 0.926076 0.003085
vt 0.955454 0.003085
vt 0.996915 0.003085
vt 0.003085 0.003085
vt 0.044546 0.003085
vt 0.073924 0.003085
vt 0.093634 0.435789
vt 0.093634 0.151338
vt 0.169478 0.435789
vt 0.429161 0.003085
vt 0.483869 0.372974
vt 0.458629 0.405867
vt 0.505147 0.293564
vt 0.458629 0.181260
vt 0.483869 0.214153
vt 0.499735 0.334670
vt 0.499735 0.252458
vt 0.758979 0.175985
vt 0.789936 0.203565
vt 0.806119 0.228084
vt 0.825719 0.277581
vt 0.828107 0.318973
vt 0.819701 0.359572
vt 0.801073 0.396613
vt 0.773492 0.427570
vt 0.646240 0.463353
vt 0.738840 0.450333
vt 0.699476 0.463353
vt 0.617485 0.457334
vt 0.580445 0.438706
vt 0.549488 0.411126
vt 0.513704 0.337110
vt 0.511317 0.295718
vt 0.519723 0.255118
vt 0.565931 0.187121
vt 0.600584 0.164357
vt 0.639948 0.151338
vt 0.721939 0.157357
vt 0.287876 0.419441
vt 0.220355 0.419441
vt 0.220355 0.167686
vt 0.254116 0.163242
vt 0.287876 0.167686
vt 0.024363 0.214153
vt 0.049603 0.181260
vt 0.003085 0.293564
vt 0.049603 0.405867
vt 0.024363 0.372974
vt 0.008497 0.252458
vt 0.008497 0.334670
s 0
f 95/149/51 87/150/51 91/151/51
f 74/152/52 73/153/52 102/154/52 103/155/52
f 96/156/53 95/157/53 120/158/53 101/159/53
f 81/160/54 80/161/54 119/162/54 99/163/54
f 88/164/55 87/165/55 118/166/55 97/167/55
f 95/157/56 94/168/56 117/169/56 120/158/56
f 80/161/57 79/170/57 116/171/57 119/162/57
f 87/165/58 86/172/58 115/173/58 118/166/58
f 94/168/59 93/174/59 114/175/59 117/169/59
f 79/170/60 78/176/60 113/177/60 116/171/60
f 86/172/61 85/178/61 112/179/61 115/173/61
f 93/174/62 92/180/62 111/181/62 114/175/62
f 78/176/63 77/182/63 110/183/63 113/177/63
f 85/184/64 84/185/64 109/186/64 112/187/64
f 92/180/65 91/188/65 108/189/65 111/181/65
f 77/182/66 76/190/66 107/191/66 110/183/66
f 84/185/67 83/192/67 106/193/67 109/186/67
f 91/188/68 90/194/68 105/195/68 108/189/68
f 76/190/69 75/196/69 104/197/69 107/191/69
f 83/192/70 82/198/70 100/199/70 106/193/70
f 90/194/71 89/200/71 98/201/71 105/195/71
f 75/196/72 74/152/72 103/155/72 104/197/72
f 73/153/73 96/156/73 101/159/73 102/154/73
f 82/198/74 81/160/74 99/163/74 100/199/74
f 89/200/75 88/164/75 97/167/75 98/201/75
f 124/202/76 121/203/76 122/204/76 123/205/76
f 126/206/77 124/202/77 123/205/77 125/207/77
f 130/208/78 128/209/78 127/210/78 129/211/78
f 132/212/79 130/208/79 129/211/79 131/213/79
f 134/214/80 132/212/80 131/213/80 133/215/80
f 136/216/81 134/214/81 133/215/81 135/217/81
f 140/218/82 137/219/82 138/220/82 139/221/82
f 121/203/83 140/218/83 139/221/83 122/204/83
f 127/222/84 126/223/84 125/224/84
f 138/225/85 136/226/85 135/227/85
f 103/155/52 102/154/52 121/228/52 124/229/52
f 125/224/86 122/230/86 138/225/86
f 102/154/73 101/159/73 140/231/73 121/228/73
f 104/197/72 103/155/72 124/229/72 126/232/72
f 106/233/87 104/234/87 126/223/87 128/235/87
f 109/186/67 106/193/67 128/236/67 130/237/67
f 112/187/64 109/186/64 130/237/64 132/238/64
f 115/173/61 112/179/61 132/239/61 134/240/61
f 118/166/58 115/173/58 134/240/58 136/241/58
f 120/242/88 118/243/88 136/226/88 137/244/88
f 101/159/53 120/158/53 137/245/53 140/231/53
f 110/246/86 107/247/86 104/234/86
f 104/234/86 106/233/86 116/248/86
f 106/233/86 100/249/86 99/250/86
f 104/234/86 116/248/86 113/251/86
f 99/250/86 119/252/86 106/233/86
f 119/252/86 116/248/86 106/233/86
f 113/251/86 110/246/86 104/234/86
f 73/253/51 74/254/51 75/255/51
f 75/255/51 76/256/51 77/257/51
f 77/257/51 78/258/51 75/255/51
f 78/258/51 79/259/51 75/255/51
f 79/259/51 80/260/51 83/261/51
f 80/260/51 81/262/51 83/261/51
f 81/262/51 82/263/51 83/261/51
f 83/261/51 84/264/51 85/265/51
f 85/265/51 86/266/51 87/150/51
f 87/150/51 88/267/51 89/268/51
f 89/268/51 90/269/51 87/150/51
f 90/269/51 91/151/51 87/150/51
f 91/151/51 92/270/51 95/149/51
f 92/270/51 93/271/51 95/149/51
f 93/271/51 94/272/51 95/149/51
f 95/149/51 96/273/51 73/253/51
f 73/253/51 75/255/51 95/149/51
f 75/255/51 79/259/51 83/261/51
f 83/261/51 85/265/51 87/150/51
f 83/261/51 95/149/51 75/255/51
f 83/261/51 87/150/51 95/149/51
f 125/224/86 123/274/86 122/230/86
f 122/230/86 139/275/86 138/225/86
f 138/225/86 135/227/86 127/222/86
f 135/227/86 133/276/86 131/277/86
f 127/222/86 131/277/86 129/278/86
f 135/227/86 131/277/86 127/222/86
f 127/222/86 125/224/86 138/225/86
f 127/222/84 128/235/84 126/223/84
f 138/225/85 137/244/85 136/226/85
f 98/279/86 97/280/86 118/243/86
f 118/243/86 120/242/86 108/281/86
f 120/242/86 117/282/86 114/283/86
f 118/243/86 108/281/86 105/284/86
f 114/283/86 111/285/86 120/242/86
f 111/285/86 108/281/86 120/242/86
f 105/284/86 98/279/86 118/243/86
o Plano
o Brazo-2
v -8.448380 4.597507 -0.450053
v -8.264685 4.597507 -0.450053
v -8.916801 1.699720 -0.450053
v -8.916801 4.340334 -0.450053
v -8.448380 4.597507 -0.146956
v -8.264685 4.597507 -0.146956
v -8.916801 1.699720 -0.146956
v -8.916801 4.340334 -0.146956
v -8.545898 1.417289 -0.146956
v -7.979003 3.982497 -0.146956
v -8.545898 3.982498 -0.146956
v -8.545898 1.417290 -0.450052
v -7.979003 3.982497 -0.450052
v -8.545898 3.982498 -0.450053
vn -0.0000 -0.0000 1.0000
vn -0.0000 -0.0000 -1.0000
vn -0.6058 -0.7956 -0.0000
vn -1.0000 -0.0000 -0.0000
vn 0.9069 0.4213 -0.0000
vn -0.4813 0.8766 -0.0000
vn -0.0000 1.0000 -0.0000
vn -0.0000 -1.0000 -0.0000
vn 1.0000 -0.0000 -0.0000
vt 0.304497 0.066711
vt 0.367432 0.018788
vt 0.367432 0.454051
vt 0.156269 0.558405
vt 0.107795 0.454051
vt 0.203986 0.454051
vt 0.070218 0.533154
vt 0.018789 0.533154
vt 0.018789 0.454051
vt 0.070218 0.454051
vt 0.018789 0.981211
vt 0.070218 0.981211
vt 0.501199 0.255693
vt 0.501199 0.140630
vt 0.552628 0.140630
vt 0.552628 0.255693
vt 0.501199 0.109461
vt 0.501199 0.018788
vt 0.552628 0.018788
vt 0.552628 0.109461
vt 0.552628 0.351884
vt 0.501199 0.351884
vt 0.070218 0.018788
vt 0.018788 0.018789
vt 0.463622 0.454051
vt 0.415148 0.558405
vt 0.383979 0.558405
vt 0.304497 0.514768
vt 0.203986 0.018788
vt 0.266920 0.066711
vt 0.266920 0.514768
vt 0.187439 0.558405
s 0
usemtl 
f 147/286/89 149/287/89 151/288/89
f 142/289/90 153/290/90 154/291/90
f 147/292/91 143/293/91 152/294/91 149/295/91
f 144/296/92 143/293/92 147/292/92 148/297/92
f 153/298/93 142/299/93 146/300/93 150/301/93
f 141/302/94 144/303/94 148/304/94 145/305/94
f 142/299/95 141/302/95 145/305/95 146/300/95
f 150/301/96 151/306/96 154/307/96 153/298/96
f 151/308/97 149/295/97 152/294/97 154/309/97
f 151/288/89 150/310/89 146/311/89
f 146/311/89 145/312/89 151/288/89
f 145/312/89 148/313/89 151/288/89
f 148/313/89 147/286/89 151/288/89
f 154/291/90 152/314/90 143/315/90
f 143/315/90 144/316/90 154/291/90
f 144/316/90 141/317/90 154/291/90
f 141/317/90 142/289/90 154/291/90
o Plano.001
v -7.635592 0.498951 -0.592416
v -8.233812 0.498951 -0.592416
v -7.566707 3.913402 -0.592416
v -8.458839 3.913402 -0.592416
v -7.132627 3.573173 -0.592416
v -8.458839 3.573173 -0.592416
v -7.455972 0.820668 -0.592416
v -8.348621 0.646158 -0.592416
v -8.458839 1.205114 -0.592416
v -7.424102 1.205114 -0.592416
v -8.458839 1.813762 -0.592416
v -7.362925 1.813762 -0.592416
v -8.458839 2.011861 -0.592416
v -7.112853 2.011861 -0.592416
v -7.635592 0.498951 0.000000
v -8.233812 0.498951 0.000000
v -7.566707 3.913402 -0.000000
v -8.458839 3.913402 -0.000000
v -7.132627 3.573173 0.000000
v -8.458839 3.573173 0.000000
v -7.455972 0.820668 0.000000
v -8.348621 0.646158 0.000000
v -8.458839 1.205114 0.000000
v -7.424102 1.205114 0.000000
v -8.458839 1.813762 0.000000
v -7.362925 1.813762 0.000000
v -8.458839 2.011861 0.000000
v -7.112853 2.011861 0.000000
vn -0.0000 -0.0000 1.0000
vn 0.9811 0.1935 -0.0000
vn -0.9999 -0.0127 -0.0000
vn 1.0000 -0.0000 -0.0000
vn -0.0000 1.0000 -0.0000
vn 0.7885 0.6150 -0.0000
vn -0.0000 -0.0000 -1.0000
vn -0.0000 -1.0000 -0.0000
vn -0.9950 0.1000 -0.0000
vn -0.6169 -0.7871 -0.0000
vn -0.6209 0.7839 -0.0000
vn -0.9966 0.0826 -0.0000
vn -0.8731 0.4875 -0.0000
vt 0.031105 0.505297
vt 0.098494 0.558116
vt 0.236995 0.558116
vt 0.236995 0.505297
vt 0.028035 0.262909
vt 0.236995 0.262909
vt 0.109189 0.028035
vt 0.081303 0.077981
vt 0.219884 0.050889
vt 0.202060 0.028035
vt 0.076356 0.137665
vt 0.236995 0.137665
vt 0.066858 0.232155
vt 0.236995 0.232155
vt 0.861967 0.136650
vt 0.861967 0.028035
vt 0.971965 0.028035
vt 0.971965 0.136650
vt 0.695899 0.513839
vt 0.695899 0.223885
vt 0.805896 0.223885
vt 0.805896 0.513839
vt 0.403063 0.467726
vt 0.403063 0.530899
vt 0.293066 0.530899
vt 0.293066 0.467726
vt 0.403063 0.141047
vt 0.403063 0.177829
vt 0.293066 0.177829
vt 0.293066 0.141047
vt 0.861967 0.353620
vt 0.861967 0.179780
vt 0.971965 0.179780
vt 0.971965 0.353620
vt 0.663350 0.504200
vt 0.455957 0.504200
vt 0.455957 0.557405
vt 0.595469 0.557405
vt 0.666443 0.260041
vt 0.455957 0.260041
vt 0.584697 0.023451
vt 0.491146 0.023451
vt 0.473192 0.046471
vt 0.612785 0.073761
vt 0.455957 0.133881
vt 0.617769 0.133881
vt 0.455957 0.229062
vt 0.627336 0.229062
vt 0.403063 0.790149
vt 0.293066 0.790149
vt 0.695899 0.142436
vt 0.695899 0.028035
vt 0.805896 0.028035
vt 0.805896 0.142436
vt 0.695899 0.654916
vt 0.805896 0.654916
vt 0.403063 0.028035
vt 0.293066 0.028035
vt 0.861967 0.504928
vt 0.861967 0.432948
vt 0.971965 0.432948
vt 0.971965 0.504928
s 0
f 159/318/98 157/319/98 158/320/98 160/321/98
f 168/322/98 159/318/98 160/321/98 167/323/98
f 155/324/98 161/325/98 162/326/98 156/327/98
f 161/325/98 164/328/98 163/329/98 162/326/98
f 164/328/98 166/330/98 165/331/98 163/329/98
f 166/330/98 168/322/98 167/323/98 165/331/98
f 162/332/99 163/333/99 177/334/99 176/335/99
f 159/336/100 168/337/100 182/338/100 173/339/100
f 160/340/101 158/341/101 172/342/101 174/343/101
f 165/344/101 167/345/101 181/346/101 179/347/101
f 155/348/102 156/349/102 170/350/102 169/351/102
f 156/349/103 162/332/103 176/335/103 170/350/103
f 173/352/104 174/353/104 172/354/104 171/355/104
f 182/356/104 181/357/104 174/353/104 173/352/104
f 169/358/104 170/359/104 176/360/104 175/361/104
f 175/361/104 176/360/104 177/362/104 178/363/104
f 178/363/104 177/362/104 179/364/104 180/365/104
f 180/365/104 179/364/104 181/357/104 182/356/104
f 158/341/105 157/366/105 171/367/105 172/342/105
f 166/368/106 164/369/106 178/370/106 180/371/106
f 157/372/107 159/336/107 173/339/107 171/373/107
f 167/345/101 160/340/101 174/343/101 181/346/101
f 163/374/101 165/344/101 179/347/101 177/375/101
f 168/337/108 166/368/108 180/371/108 182/338/108
f 164/376/109 161/377/109 175/378/109 178/379/109
f 161/377/110 155/348/110 169/351/110 175/378/110
